<svg xmlns="http://www.w3.org/2000/svg" xmlns:xlink="http://www.w3.org/1999/xlink" width="4096" zoomAndPan="magnify" viewBox="0 0 3072 3071.999987" height="4096" preserveAspectRatio="xMidYMid meet" version="1.0"><path fill="#000000" d="M 1434.679688 1825.953125 L 1434.679688 2560 C 1434.671875 2568.378906 1434.457031 2576.75 1434.039062 2585.117188 C 1433.621094 2593.484375 1433 2601.835938 1432.171875 2610.171875 C 1431.34375 2618.507812 1430.3125 2626.816406 1429.074219 2635.101562 C 1427.839844 2643.390625 1426.402344 2651.640625 1424.761719 2659.855469 C 1423.125 2668.070312 1421.28125 2676.238281 1419.242188 2684.363281 C 1417.203125 2692.488281 1414.964844 2700.558594 1412.527344 2708.574219 C 1410.089844 2716.589844 1407.460938 2724.539062 1404.632812 2732.425781 C 1401.808594 2740.3125 1398.789062 2748.125 1395.582031 2755.863281 C 1392.371094 2763.601562 1388.972656 2771.253906 1385.390625 2778.828125 C 1381.804688 2786.398438 1378.035156 2793.875 1374.085938 2801.261719 C 1370.132812 2808.648438 1366.003906 2815.933594 1361.695312 2823.121094 C 1357.386719 2830.304688 1352.902344 2837.378906 1348.246094 2844.34375 C 1343.59375 2851.304688 1338.769531 2858.152344 1333.777344 2864.878906 C 1328.785156 2871.609375 1323.632812 2878.210938 1318.316406 2884.683594 C 1313.003906 2891.160156 1307.53125 2897.5 1301.90625 2903.707031 C 1296.277344 2909.914062 1290.503906 2915.980469 1284.582031 2921.902344 C 1278.65625 2927.828125 1272.59375 2933.601562 1266.386719 2939.226562 C 1260.179688 2944.855469 1253.835938 2950.324219 1247.363281 2955.640625 C 1240.886719 2960.953125 1234.285156 2966.109375 1227.558594 2971.097656 C 1220.832031 2976.089844 1213.984375 2980.914062 1207.019531 2985.570312 C 1200.054688 2990.226562 1192.980469 2994.707031 1185.796875 2999.015625 C 1178.613281 3003.324219 1171.328125 3007.457031 1163.941406 3011.40625 C 1156.554688 3015.359375 1149.074219 3019.125 1141.503906 3022.710938 C 1133.933594 3026.296875 1126.277344 3029.691406 1118.539062 3032.902344 C 1110.800781 3036.113281 1102.988281 3039.128906 1095.105469 3041.957031 C 1087.21875 3044.78125 1079.265625 3047.414062 1071.25 3049.847656 C 1063.238281 3052.285156 1055.167969 3054.523438 1047.042969 3056.566406 C 1038.917969 3058.605469 1030.746094 3060.445312 1022.53125 3062.085938 C 1014.316406 3063.726562 1006.066406 3065.164062 997.78125 3066.398438 C 989.496094 3067.632812 981.183594 3068.664062 972.847656 3069.492188 C 964.511719 3070.320312 956.160156 3070.941406 947.792969 3071.363281 C 939.425781 3071.78125 931.054688 3071.992188 922.679688 3072 L 512 3072 C 503.621094 3071.992188 495.25 3071.78125 486.882812 3071.363281 C 478.515625 3070.941406 470.164062 3070.320312 461.828125 3069.492188 C 453.492188 3068.664062 445.183594 3067.632812 436.898438 3066.398438 C 428.609375 3065.164062 420.359375 3063.726562 412.144531 3062.085938 C 403.929688 3060.445312 395.761719 3058.605469 387.636719 3056.566406 C 379.511719 3054.523438 371.441406 3052.285156 363.425781 3049.847656 C 355.410156 3047.414062 347.460938 3044.78125 339.574219 3041.957031 C 331.6875 3039.128906 323.875 3036.113281 316.136719 3032.902344 C 308.398438 3029.691406 300.746094 3026.296875 293.171875 3022.710938 C 285.601562 3019.125 278.125 3015.359375 270.738281 3011.40625 C 263.351562 3007.457031 256.066406 3003.324219 248.878906 2999.015625 C 241.695312 2994.707031 234.621094 2990.226562 227.65625 2985.570312 C 220.691406 2980.914062 213.847656 2976.089844 207.121094 2971.097656 C 200.390625 2966.109375 193.789062 2960.953125 187.316406 2955.640625 C 180.839844 2950.324219 174.5 2944.855469 168.292969 2939.226562 C 162.085938 2933.601562 156.019531 2927.828125 150.097656 2921.902344 C 144.171875 2915.980469 138.398438 2909.914062 132.773438 2903.707031 C 127.144531 2897.5 121.675781 2891.160156 116.359375 2884.683594 C 111.046875 2878.210938 105.890625 2871.609375 100.902344 2864.878906 C 95.910156 2858.152344 91.085938 2851.304688 86.429688 2844.34375 C 81.773438 2837.378906 77.292969 2830.304688 72.984375 2823.121094 C 68.675781 2815.933594 64.542969 2808.648438 60.59375 2801.261719 C 56.640625 2793.875 52.875 2786.398438 49.289062 2778.828125 C 45.703125 2771.253906 42.308594 2763.601562 39.097656 2755.863281 C 35.886719 2748.125 32.871094 2740.3125 30.042969 2732.425781 C 27.21875 2724.539062 24.585938 2716.589844 22.152344 2708.574219 C 19.714844 2700.558594 17.476562 2692.488281 15.433594 2684.363281 C 13.394531 2676.238281 11.554688 2668.070312 9.914062 2659.855469 C 8.273438 2651.640625 6.835938 2643.390625 5.601562 2635.101562 C 4.367188 2626.816406 3.335938 2618.507812 2.507812 2610.171875 C 1.679688 2601.835938 1.058594 2593.484375 0.636719 2585.117188 C 0.21875 2576.75 0.0078125 2568.378906 0 2560 L 0 2149.320312 C 0.0078125 2140.945312 0.21875 2132.574219 0.636719 2124.207031 C 1.058594 2115.839844 1.679688 2107.488281 2.507812 2099.152344 C 3.335938 2090.816406 4.367188 2082.503906 5.601562 2074.21875 C 6.835938 2065.933594 8.273438 2057.683594 9.914062 2049.46875 C 11.554688 2041.253906 13.394531 2033.082031 15.433594 2024.957031 C 17.476562 2016.832031 19.714844 2008.761719 22.152344 2000.75 C 24.585938 1992.734375 27.21875 1984.78125 30.042969 1976.898438 C 32.871094 1969.011719 35.886719 1961.199219 39.097656 1953.460938 C 42.308594 1945.722656 45.703125 1938.066406 49.289062 1930.496094 C 52.875 1922.925781 56.640625 1915.445312 60.59375 1908.058594 C 64.542969 1900.671875 68.675781 1893.386719 72.984375 1886.203125 C 77.292969 1879.019531 81.773438 1871.945312 86.429688 1864.980469 C 91.085938 1858.015625 95.910156 1851.167969 100.902344 1844.441406 C 105.890625 1837.714844 111.046875 1831.113281 116.359375 1824.636719 C 121.675781 1818.164062 127.144531 1811.820312 132.773438 1805.613281 C 138.398438 1799.410156 144.171875 1793.34375 150.097656 1787.417969 C 156.019531 1781.496094 162.085938 1775.722656 168.292969 1770.09375 C 174.5 1764.46875 180.839844 1759 187.316406 1753.683594 C 193.789062 1748.367188 200.390625 1743.214844 207.121094 1738.222656 C 213.847656 1733.230469 220.695312 1728.40625 227.65625 1723.753906 C 234.621094 1719.097656 241.695312 1714.613281 248.878906 1710.304688 C 256.066406 1705.996094 263.351562 1701.867188 270.738281 1697.914062 C 278.125 1693.964844 285.601562 1690.195312 293.175781 1686.609375 C 300.746094 1683.027344 308.398438 1679.628906 316.136719 1676.417969 C 323.875 1673.210938 331.6875 1670.191406 339.574219 1667.367188 C 347.460938 1664.539062 355.410156 1661.910156 363.425781 1659.472656 C 371.441406 1657.035156 379.511719 1654.796875 387.636719 1652.757812 C 395.761719 1650.71875 403.929688 1648.875 412.144531 1647.238281 C 420.359375 1645.597656 428.613281 1644.160156 436.898438 1642.925781 C 445.183594 1641.6875 453.492188 1640.65625 461.828125 1639.828125 C 470.164062 1639.003906 478.515625 1638.378906 486.882812 1637.960938 C 495.25 1637.542969 503.621094 1637.328125 512 1637.320312 L 1246.046875 1637.320312 C 1249.132812 1637.324219 1252.214844 1637.40625 1255.300781 1637.558594 C 1258.382812 1637.714844 1261.457031 1637.945312 1264.527344 1638.25 C 1267.601562 1638.554688 1270.660156 1638.933594 1273.714844 1639.390625 C 1276.765625 1639.847656 1279.804688 1640.375 1282.832031 1640.980469 C 1285.859375 1641.585938 1288.867188 1642.265625 1291.859375 1643.015625 C 1294.855469 1643.769531 1297.828125 1644.59375 1300.78125 1645.492188 C 1303.730469 1646.390625 1306.660156 1647.359375 1309.566406 1648.398438 C 1312.472656 1649.441406 1315.347656 1650.554688 1318.199219 1651.734375 C 1321.050781 1652.917969 1323.871094 1654.171875 1326.660156 1655.492188 C 1329.449219 1656.8125 1332.203125 1658.199219 1334.925781 1659.65625 C 1337.644531 1661.113281 1340.332031 1662.632812 1342.976562 1664.222656 C 1345.625 1665.808594 1348.230469 1667.460938 1350.796875 1669.175781 C 1353.359375 1670.890625 1355.882812 1672.667969 1358.359375 1674.507812 C 1360.839844 1676.347656 1363.273438 1678.246094 1365.65625 1680.203125 C 1368.042969 1682.160156 1370.378906 1684.175781 1372.664062 1686.25 C 1374.953125 1688.320312 1377.1875 1690.449219 1379.367188 1692.632812 C 1381.550781 1694.8125 1383.675781 1697.046875 1385.75 1699.335938 C 1387.824219 1701.621094 1389.839844 1703.957031 1391.796875 1706.34375 C 1393.753906 1708.726562 1395.652344 1711.160156 1397.492188 1713.636719 C 1399.332031 1716.117188 1401.109375 1718.640625 1402.824219 1721.203125 C 1404.539062 1723.769531 1406.191406 1726.375 1407.777344 1729.023438 C 1409.367188 1731.667969 1410.886719 1734.351562 1412.34375 1737.074219 C 1413.800781 1739.796875 1415.1875 1742.550781 1416.507812 1745.339844 C 1417.828125 1748.128906 1419.082031 1750.949219 1420.261719 1753.800781 C 1421.445312 1756.648438 1422.558594 1759.527344 1423.597656 1762.433594 C 1424.640625 1765.339844 1425.609375 1768.265625 1426.507812 1771.21875 C 1427.40625 1774.171875 1428.230469 1777.144531 1428.984375 1780.136719 C 1429.734375 1783.132812 1430.414062 1786.140625 1431.019531 1789.167969 C 1431.625 1792.195312 1432.152344 1795.234375 1432.609375 1798.285156 C 1433.066406 1801.339844 1433.445312 1804.398438 1433.75 1807.472656 C 1434.054688 1810.542969 1434.285156 1813.617188 1434.441406 1816.699219 C 1434.59375 1819.78125 1434.675781 1822.867188 1434.679688 1825.953125 Z M 1434.679688 1825.953125 " fill-opacity="1" fill-rule="nonzero"/><path fill="#000000" d="M 3072 2149.320312 L 3072 2560 C 3071.992188 2568.378906 3071.78125 2576.75 3071.363281 2585.117188 C 3070.941406 2593.484375 3070.320312 2601.835938 3069.492188 2610.171875 C 3068.664062 2618.507812 3067.632812 2626.816406 3066.398438 2635.101562 C 3065.164062 2643.390625 3063.726562 2651.640625 3062.085938 2659.855469 C 3060.445312 2668.070312 3058.605469 2676.238281 3056.5625 2684.363281 C 3054.523438 2692.488281 3052.285156 2700.558594 3049.847656 2708.574219 C 3047.414062 2716.589844 3044.78125 2724.539062 3041.957031 2732.425781 C 3039.128906 2740.3125 3036.113281 2748.125 3032.902344 2755.863281 C 3029.691406 2763.601562 3026.296875 2771.253906 3022.710938 2778.828125 C 3019.125 2786.398438 3015.359375 2793.875 3011.40625 2801.261719 C 3007.457031 2808.648438 3003.324219 2815.933594 2999.015625 2823.121094 C 2994.707031 2830.304688 2990.226562 2837.378906 2985.570312 2844.34375 C 2980.914062 2851.304688 2976.089844 2858.152344 2971.097656 2864.878906 C 2966.109375 2871.609375 2960.953125 2878.210938 2955.640625 2884.683594 C 2950.324219 2891.160156 2944.851562 2897.5 2939.226562 2903.707031 C 2933.601562 2909.914062 2927.828125 2915.980469 2921.902344 2921.902344 C 2915.980469 2927.828125 2909.914062 2933.601562 2903.707031 2939.226562 C 2897.5 2944.855469 2891.160156 2950.324219 2884.683594 2955.640625 C 2878.210938 2960.953125 2871.609375 2966.109375 2864.878906 2971.097656 C 2858.152344 2976.089844 2851.304688 2980.914062 2844.339844 2985.570312 C 2837.378906 2990.226562 2830.304688 2994.707031 2823.121094 2999.015625 C 2815.933594 3003.324219 2808.648438 3007.457031 2801.261719 3011.40625 C 2793.875 3015.359375 2786.398438 3019.125 2778.824219 3022.710938 C 2771.253906 3026.296875 2763.597656 3029.691406 2755.863281 3032.902344 C 2748.125 3036.113281 2740.3125 3039.128906 2732.425781 3041.957031 C 2724.539062 3044.78125 2716.589844 3047.414062 2708.574219 3049.847656 C 2700.558594 3052.285156 2692.488281 3054.523438 2684.363281 3056.566406 C 2676.238281 3058.605469 2668.070312 3060.445312 2659.855469 3062.085938 C 2651.640625 3063.726562 2643.386719 3065.164062 2635.101562 3066.398438 C 2626.816406 3067.632812 2618.507812 3068.664062 2610.171875 3069.492188 C 2601.832031 3070.320312 2593.484375 3070.941406 2585.117188 3071.363281 C 2576.75 3071.78125 2568.378906 3071.992188 2560 3072 L 2149.320312 3072 C 2140.945312 3071.992188 2132.574219 3071.78125 2124.207031 3071.363281 C 2115.839844 3070.941406 2107.488281 3070.320312 2099.152344 3069.492188 C 2090.816406 3068.664062 2082.503906 3067.632812 2074.21875 3066.398438 C 2065.933594 3065.164062 2057.683594 3063.726562 2049.46875 3062.085938 C 2041.253906 3060.445312 2033.082031 3058.605469 2024.957031 3056.566406 C 2016.832031 3054.523438 2008.761719 3052.285156 2000.75 3049.847656 C 1992.734375 3047.414062 1984.78125 3044.78125 1976.894531 3041.957031 C 1969.011719 3039.128906 1961.199219 3036.113281 1953.460938 3032.902344 C 1945.722656 3029.691406 1938.066406 3026.296875 1930.496094 3022.710938 C 1922.925781 3019.125 1915.445312 3015.359375 1908.058594 3011.40625 C 1900.671875 3007.457031 1893.386719 3003.324219 1886.203125 2999.015625 C 1879.019531 2994.707031 1871.945312 2990.226562 1864.980469 2985.570312 C 1858.015625 2980.914062 1851.167969 2976.089844 1844.441406 2971.097656 C 1837.714844 2966.109375 1831.113281 2960.953125 1824.636719 2955.640625 C 1818.164062 2950.324219 1811.820312 2944.855469 1805.613281 2939.226562 C 1799.410156 2933.601562 1793.34375 2927.828125 1787.417969 2921.902344 C 1781.496094 2915.980469 1775.722656 2909.914062 1770.09375 2903.707031 C 1764.46875 2897.5 1759 2891.160156 1753.683594 2884.683594 C 1748.367188 2878.210938 1743.214844 2871.609375 1738.222656 2864.878906 C 1733.230469 2858.152344 1728.40625 2851.308594 1723.753906 2844.34375 C 1719.097656 2837.378906 1714.613281 2830.304688 1710.304688 2823.121094 C 1705.996094 2815.9375 1701.867188 2808.648438 1697.914062 2801.261719 C 1693.964844 2793.878906 1690.195312 2786.398438 1686.609375 2778.828125 C 1683.027344 2771.253906 1679.628906 2763.601562 1676.417969 2755.863281 C 1673.210938 2748.125 1670.191406 2740.3125 1667.367188 2732.425781 C 1664.539062 2724.539062 1661.910156 2716.589844 1659.472656 2708.574219 C 1657.035156 2700.558594 1654.796875 2692.488281 1652.757812 2684.363281 C 1650.71875 2676.238281 1648.875 2668.070312 1647.238281 2659.855469 C 1645.597656 2651.640625 1644.160156 2643.390625 1642.925781 2635.101562 C 1641.6875 2626.816406 1640.65625 2618.507812 1639.828125 2610.171875 C 1639.003906 2601.835938 1638.378906 2593.484375 1637.960938 2585.117188 C 1637.542969 2576.75 1637.328125 2568.378906 1637.320312 2560 L 1637.320312 1825.953125 C 1637.324219 1822.867188 1637.40625 1819.78125 1637.558594 1816.699219 C 1637.714844 1813.617188 1637.945312 1810.542969 1638.25 1807.472656 C 1638.554688 1804.398438 1638.933594 1801.339844 1639.390625 1798.285156 C 1639.847656 1795.234375 1640.375 1792.195312 1640.980469 1789.167969 C 1641.585938 1786.140625 1642.265625 1783.132812 1643.015625 1780.136719 C 1643.769531 1777.144531 1644.59375 1774.171875 1645.492188 1771.21875 C 1646.390625 1768.265625 1647.359375 1765.339844 1648.398438 1762.433594 C 1649.441406 1759.527344 1650.554688 1756.648438 1651.734375 1753.800781 C 1652.917969 1750.949219 1654.171875 1748.128906 1655.492188 1745.339844 C 1656.8125 1742.550781 1658.199219 1739.796875 1659.65625 1737.074219 C 1661.113281 1734.351562 1662.632812 1731.667969 1664.222656 1729.023438 C 1665.808594 1726.375 1667.460938 1723.769531 1669.175781 1721.203125 C 1670.890625 1718.640625 1672.667969 1716.117188 1674.507812 1713.636719 C 1676.347656 1711.160156 1678.246094 1708.726562 1680.203125 1706.34375 C 1682.160156 1703.957031 1684.175781 1701.621094 1686.25 1699.335938 C 1688.320312 1697.046875 1690.449219 1694.8125 1692.632812 1692.632812 C 1694.8125 1690.449219 1697.046875 1688.320312 1699.335938 1686.25 C 1701.621094 1684.175781 1703.957031 1682.160156 1706.34375 1680.203125 C 1708.726562 1678.246094 1711.160156 1676.347656 1713.636719 1674.507812 C 1716.117188 1672.667969 1718.640625 1670.890625 1721.203125 1669.175781 C 1723.769531 1667.460938 1726.375 1665.808594 1729.023438 1664.222656 C 1731.667969 1662.632812 1734.351562 1661.113281 1737.074219 1659.65625 C 1739.796875 1658.199219 1742.550781 1656.8125 1745.339844 1655.492188 C 1748.128906 1654.171875 1750.949219 1652.917969 1753.800781 1651.738281 C 1756.648438 1650.554688 1759.527344 1649.441406 1762.433594 1648.398438 C 1765.339844 1647.359375 1768.265625 1646.390625 1771.21875 1645.492188 C 1774.171875 1644.59375 1777.144531 1643.769531 1780.136719 1643.015625 C 1783.132812 1642.265625 1786.140625 1641.585938 1789.167969 1640.980469 C 1792.195312 1640.375 1795.234375 1639.847656 1798.285156 1639.390625 C 1801.339844 1638.933594 1804.398438 1638.554688 1807.46875 1638.25 C 1810.542969 1637.945312 1813.617188 1637.714844 1816.699219 1637.558594 C 1819.78125 1637.40625 1822.867188 1637.324219 1825.953125 1637.320312 L 2560 1637.320312 C 2568.378906 1637.328125 2576.75 1637.542969 2585.117188 1637.960938 C 2593.484375 1638.378906 2601.835938 1639.003906 2610.171875 1639.828125 C 2618.507812 1640.65625 2626.816406 1641.6875 2635.101562 1642.925781 C 2643.386719 1644.160156 2651.640625 1645.597656 2659.855469 1647.238281 C 2668.070312 1648.875 2676.238281 1650.71875 2684.363281 1652.757812 C 2692.488281 1654.796875 2700.558594 1657.035156 2708.574219 1659.472656 C 2716.589844 1661.910156 2724.539062 1664.539062 2732.425781 1667.367188 C 2740.3125 1670.191406 2748.125 1673.210938 2755.863281 1676.417969 C 2763.597656 1679.628906 2771.253906 1683.027344 2778.824219 1686.609375 C 2786.398438 1690.195312 2793.875 1693.964844 2801.261719 1697.914062 C 2808.648438 1701.867188 2815.933594 1705.996094 2823.121094 1710.304688 C 2830.304688 1714.613281 2837.378906 1719.097656 2844.339844 1723.753906 C 2851.304688 1728.40625 2858.152344 1733.230469 2864.878906 1738.222656 C 2871.609375 1743.214844 2878.210938 1748.367188 2884.683594 1753.683594 C 2891.160156 1758.996094 2897.5 1764.46875 2903.707031 1770.09375 C 2909.914062 1775.722656 2915.980469 1781.496094 2921.902344 1787.417969 C 2927.828125 1793.34375 2933.601562 1799.40625 2939.226562 1805.613281 C 2944.851562 1811.820312 2950.324219 1818.164062 2955.640625 1824.636719 C 2960.953125 1831.113281 2966.109375 1837.714844 2971.097656 1844.441406 C 2976.089844 1851.167969 2980.914062 1858.015625 2985.570312 1864.980469 C 2990.226562 1871.945312 2994.707031 1879.019531 2999.015625 1886.203125 C 3003.324219 1893.386719 3007.457031 1900.671875 3011.40625 1908.058594 C 3015.359375 1915.445312 3019.125 1922.925781 3022.710938 1930.496094 C 3026.296875 1938.066406 3029.691406 1945.722656 3032.902344 1953.460938 C 3036.113281 1961.199219 3039.128906 1969.011719 3041.957031 1976.898438 C 3044.78125 1984.78125 3047.414062 1992.734375 3049.847656 2000.75 C 3052.285156 2008.761719 3054.523438 2016.832031 3056.566406 2024.957031 C 3058.605469 2033.082031 3060.445312 2041.253906 3062.085938 2049.46875 C 3063.726562 2057.683594 3065.164062 2065.933594 3066.398438 2074.21875 C 3067.632812 2082.503906 3068.664062 2090.816406 3069.492188 2099.152344 C 3070.320312 2107.488281 3070.941406 2115.839844 3071.363281 2124.207031 C 3071.78125 2132.574219 3071.992188 2140.945312 3072 2149.320312 Z M 3072 2149.320312 " fill-opacity="1" fill-rule="nonzero"/><path fill="#000000" d="M 1434.679688 512 L 1434.679688 1246.046875 C 1434.675781 1249.132812 1434.59375 1252.214844 1434.441406 1255.300781 C 1434.285156 1258.382812 1434.054688 1261.457031 1433.75 1264.527344 C 1433.445312 1267.601562 1433.066406 1270.660156 1432.609375 1273.714844 C 1432.152344 1276.765625 1431.625 1279.804688 1431.019531 1282.832031 C 1430.414062 1285.859375 1429.734375 1288.867188 1428.984375 1291.859375 C 1428.230469 1294.855469 1427.40625 1297.828125 1426.507812 1300.78125 C 1425.609375 1303.730469 1424.640625 1306.660156 1423.597656 1309.566406 C 1422.558594 1312.472656 1421.445312 1315.347656 1420.261719 1318.199219 C 1419.082031 1321.050781 1417.828125 1323.871094 1416.507812 1326.660156 C 1415.1875 1329.449219 1413.800781 1332.203125 1412.34375 1334.925781 C 1410.886719 1337.644531 1409.367188 1340.332031 1407.777344 1342.976562 C 1406.191406 1345.625 1404.539062 1348.230469 1402.824219 1350.796875 C 1401.109375 1353.359375 1399.332031 1355.882812 1397.492188 1358.359375 C 1395.652344 1360.839844 1393.753906 1363.269531 1391.796875 1365.65625 C 1389.839844 1368.042969 1387.824219 1370.378906 1385.75 1372.664062 C 1383.675781 1374.953125 1381.550781 1377.1875 1379.367188 1379.367188 C 1377.1875 1381.550781 1374.953125 1383.679688 1372.664062 1385.75 C 1370.378906 1387.824219 1368.042969 1389.839844 1365.65625 1391.796875 C 1363.269531 1393.753906 1360.839844 1395.652344 1358.359375 1397.492188 C 1355.882812 1399.332031 1353.359375 1401.109375 1350.796875 1402.824219 C 1348.230469 1404.539062 1345.625 1406.191406 1342.976562 1407.777344 C 1340.332031 1409.367188 1337.644531 1410.886719 1334.925781 1412.34375 C 1332.203125 1413.800781 1329.449219 1415.1875 1326.660156 1416.507812 C 1323.871094 1417.828125 1321.050781 1419.082031 1318.199219 1420.261719 C 1315.347656 1421.445312 1312.472656 1422.558594 1309.566406 1423.597656 C 1306.660156 1424.640625 1303.730469 1425.609375 1300.78125 1426.507812 C 1297.828125 1427.40625 1294.855469 1428.230469 1291.859375 1428.984375 C 1288.867188 1429.734375 1285.859375 1430.414062 1282.832031 1431.019531 C 1279.804688 1431.625 1276.765625 1432.152344 1273.714844 1432.609375 C 1270.660156 1433.066406 1267.601562 1433.445312 1264.527344 1433.75 C 1261.457031 1434.054688 1258.382812 1434.285156 1255.300781 1434.441406 C 1252.214844 1434.59375 1249.132812 1434.675781 1246.046875 1434.679688 L 512 1434.679688 C 503.621094 1434.671875 495.25 1434.457031 486.882812 1434.039062 C 478.515625 1433.621094 470.164062 1433 461.828125 1432.171875 C 453.492188 1431.34375 445.183594 1430.3125 436.898438 1429.074219 C 428.609375 1427.839844 420.359375 1426.402344 412.144531 1424.761719 C 403.929688 1423.125 395.761719 1421.285156 387.636719 1419.242188 C 379.511719 1417.203125 371.441406 1414.964844 363.425781 1412.527344 C 355.410156 1410.089844 347.460938 1407.460938 339.574219 1404.632812 C 331.6875 1401.808594 323.875 1398.789062 316.136719 1395.582031 C 308.398438 1392.371094 300.746094 1388.972656 293.171875 1385.390625 C 285.601562 1381.804688 278.125 1378.035156 270.738281 1374.085938 C 263.351562 1370.132812 256.066406 1366.003906 248.878906 1361.695312 C 241.695312 1357.386719 234.621094 1352.902344 227.65625 1348.246094 C 220.691406 1343.59375 213.847656 1338.769531 207.121094 1333.777344 C 200.390625 1328.785156 193.789062 1323.632812 187.316406 1318.316406 C 180.839844 1313.003906 174.5 1307.53125 168.292969 1301.90625 C 162.085938 1296.28125 156.019531 1290.503906 150.097656 1284.582031 C 144.171875 1278.65625 138.398438 1272.59375 132.773438 1266.386719 C 127.144531 1260.179688 121.675781 1253.835938 116.359375 1247.363281 C 111.046875 1240.886719 105.890625 1234.285156 100.902344 1227.558594 C 95.910156 1220.832031 91.085938 1213.984375 86.429688 1207.019531 C 81.773438 1200.054688 77.292969 1192.980469 72.984375 1185.796875 C 68.675781 1178.613281 64.542969 1171.328125 60.59375 1163.941406 C 56.640625 1156.554688 52.875 1149.074219 49.289062 1141.503906 C 45.703125 1133.933594 42.308594 1126.277344 39.097656 1118.539062 C 35.886719 1110.800781 32.871094 1102.988281 30.042969 1095.105469 C 27.21875 1087.21875 24.585938 1079.265625 22.152344 1071.253906 C 19.714844 1063.238281 17.476562 1055.167969 15.433594 1047.042969 C 13.394531 1038.917969 11.554688 1030.746094 9.914062 1022.53125 C 8.273438 1014.316406 6.835938 1006.066406 5.601562 997.78125 C 4.367188 989.496094 3.335938 981.183594 2.507812 972.847656 C 1.679688 964.511719 1.058594 956.160156 0.636719 947.792969 C 0.21875 939.425781 0.0078125 931.054688 0 922.679688 L 0 512 C 0.0078125 503.621094 0.21875 495.25 0.636719 486.882812 C 1.058594 478.515625 1.679688 470.164062 2.507812 461.828125 C 3.335938 453.492188 4.367188 445.183594 5.601562 436.898438 C 6.835938 428.613281 8.273438 420.359375 9.914062 412.144531 C 11.554688 403.929688 13.394531 395.761719 15.433594 387.636719 C 17.476562 379.511719 19.714844 371.441406 22.152344 363.425781 C 24.585938 355.410156 27.21875 347.460938 30.042969 339.574219 C 32.871094 331.6875 35.886719 323.875 39.097656 316.136719 C 42.308594 308.398438 45.703125 300.746094 49.289062 293.175781 C 52.875 285.601562 56.640625 278.125 60.59375 270.738281 C 64.542969 263.351562 68.675781 256.066406 72.984375 248.878906 C 77.292969 241.695312 81.773438 234.621094 86.429688 227.65625 C 91.085938 220.695312 95.910156 213.847656 100.902344 207.121094 C 105.890625 200.390625 111.046875 193.789062 116.359375 187.316406 C 121.675781 180.839844 127.144531 174.5 132.773438 168.292969 C 138.398438 162.085938 144.171875 156.019531 150.097656 150.097656 C 156.019531 144.171875 162.085938 138.398438 168.292969 132.773438 C 174.5 127.144531 180.839844 121.675781 187.316406 116.359375 C 193.789062 111.046875 200.390625 105.890625 207.121094 100.902344 C 213.847656 95.910156 220.691406 91.085938 227.65625 86.429688 C 234.621094 81.773438 241.695312 77.292969 248.878906 72.984375 C 256.066406 68.675781 263.351562 64.542969 270.738281 60.59375 C 278.125 56.640625 285.601562 52.875 293.171875 49.289062 C 300.746094 45.703125 308.398438 42.308594 316.136719 39.097656 C 323.875 35.886719 331.6875 32.871094 339.574219 30.042969 C 347.460938 27.21875 355.410156 24.585938 363.425781 22.152344 C 371.441406 19.714844 379.511719 17.476562 387.636719 15.433594 C 395.761719 13.394531 403.929688 11.554688 412.144531 9.914062 C 420.359375 8.273438 428.609375 6.835938 436.898438 5.601562 C 445.183594 4.367188 453.492188 3.335938 461.828125 2.507812 C 470.164062 1.679688 478.515625 1.058594 486.882812 0.640625 C 495.25 0.21875 503.621094 0.0078125 512 0 L 922.679688 0 C 931.054688 0.0078125 939.425781 0.21875 947.792969 0.640625 C 956.160156 1.058594 964.511719 1.679688 972.847656 2.507812 C 981.183594 3.335938 989.496094 4.367188 997.78125 5.601562 C 1006.066406 6.835938 1014.316406 8.273438 1022.53125 9.914062 C 1030.746094 11.554688 1038.917969 13.394531 1047.042969 15.433594 C 1055.167969 17.476562 1063.238281 19.714844 1071.25 22.152344 C 1079.265625 24.585938 1087.21875 27.21875 1095.101562 30.042969 C 1102.988281 32.871094 1110.800781 35.886719 1118.539062 39.097656 C 1126.277344 42.308594 1133.933594 45.703125 1141.503906 49.289062 C 1149.074219 52.875 1156.554688 56.640625 1163.941406 60.59375 C 1171.328125 64.542969 1178.613281 68.675781 1185.796875 72.984375 C 1192.980469 77.292969 1200.054688 81.773438 1207.019531 86.429688 C 1213.984375 91.085938 1220.832031 95.910156 1227.558594 100.902344 C 1234.285156 105.890625 1240.886719 111.046875 1247.363281 116.359375 C 1253.835938 121.675781 1260.179688 127.144531 1266.386719 132.773438 C 1272.59375 138.398438 1278.65625 144.171875 1284.582031 150.097656 C 1290.503906 156.019531 1296.277344 162.085938 1301.90625 168.292969 C 1307.53125 174.5 1313.003906 180.839844 1318.316406 187.316406 C 1323.632812 193.789062 1328.785156 200.390625 1333.777344 207.121094 C 1338.769531 213.847656 1343.59375 220.695312 1348.246094 227.65625 C 1352.902344 234.621094 1357.386719 241.695312 1361.695312 248.878906 C 1366.003906 256.066406 1370.132812 263.351562 1374.085938 270.738281 C 1378.035156 278.125 1381.804688 285.601562 1385.390625 293.175781 C 1388.972656 300.746094 1392.371094 308.398438 1395.582031 316.136719 C 1398.789062 323.875 1401.808594 331.6875 1404.632812 339.574219 C 1407.460938 347.460938 1410.089844 355.410156 1412.527344 363.425781 C 1414.964844 371.441406 1417.203125 379.511719 1419.242188 387.636719 C 1421.28125 395.761719 1423.125 403.929688 1424.761719 412.144531 C 1426.402344 420.359375 1427.839844 428.613281 1429.074219 436.898438 C 1430.3125 445.183594 1431.34375 453.492188 1432.171875 461.828125 C 1433 470.164062 1433.621094 478.515625 1434.039062 486.882812 C 1434.457031 495.25 1434.671875 503.621094 1434.679688 512 Z M 1434.679688 512 " fill-opacity="1" fill-rule="nonzero"/><path fill="#000000" d="M 3072 512 L 3072 922.679688 C 3071.992188 931.054688 3071.78125 939.425781 3071.363281 947.792969 C 3070.941406 956.160156 3070.320312 964.511719 3069.492188 972.847656 C 3068.664062 981.183594 3067.632812 989.496094 3066.398438 997.78125 C 3065.164062 1006.066406 3063.726562 1014.316406 3062.085938 1022.53125 C 3060.445312 1030.746094 3058.605469 1038.917969 3056.5625 1047.042969 C 3054.523438 1055.167969 3052.285156 1063.238281 3049.847656 1071.25 C 3047.414062 1079.265625 3044.78125 1087.21875 3041.957031 1095.105469 C 3039.128906 1102.988281 3036.113281 1110.800781 3032.902344 1118.539062 C 3029.691406 1126.277344 3026.296875 1133.933594 3022.710938 1141.503906 C 3019.125 1149.074219 3015.359375 1156.554688 3011.40625 1163.941406 C 3007.457031 1171.328125 3003.324219 1178.613281 2999.015625 1185.796875 C 2994.707031 1192.980469 2990.226562 1200.054688 2985.570312 1207.019531 C 2980.914062 1213.984375 2976.089844 1220.832031 2971.097656 1227.558594 C 2966.109375 1234.285156 2960.953125 1240.886719 2955.640625 1247.363281 C 2950.324219 1253.835938 2944.851562 1260.179688 2939.226562 1266.386719 C 2933.601562 1272.59375 2927.828125 1278.65625 2921.902344 1284.582031 C 2915.980469 1290.503906 2909.914062 1296.277344 2903.707031 1301.90625 C 2897.5 1307.53125 2891.160156 1313.003906 2884.683594 1318.316406 C 2878.210938 1323.632812 2871.609375 1328.785156 2864.878906 1333.777344 C 2858.152344 1338.769531 2851.304688 1343.59375 2844.339844 1348.246094 C 2837.378906 1352.902344 2830.304688 1357.386719 2823.121094 1361.695312 C 2815.933594 1366.003906 2808.648438 1370.132812 2801.261719 1374.085938 C 2793.875 1378.035156 2786.398438 1381.804688 2778.824219 1385.390625 C 2771.253906 1388.972656 2763.597656 1392.371094 2755.863281 1395.582031 C 2748.125 1398.789062 2740.3125 1401.808594 2732.425781 1404.632812 C 2724.539062 1407.460938 2716.589844 1410.089844 2708.574219 1412.527344 C 2700.558594 1414.964844 2692.488281 1417.203125 2684.363281 1419.242188 C 2676.238281 1421.28125 2668.070312 1423.125 2659.855469 1424.761719 C 2651.640625 1426.402344 2643.386719 1427.839844 2635.101562 1429.074219 C 2626.816406 1430.3125 2618.507812 1431.34375 2610.171875 1432.171875 C 2601.832031 1433 2593.484375 1433.621094 2585.117188 1434.039062 C 2576.75 1434.457031 2568.378906 1434.671875 2560 1434.679688 L 1825.953125 1434.679688 C 1822.867188 1434.675781 1819.78125 1434.59375 1816.699219 1434.441406 C 1813.617188 1434.285156 1810.542969 1434.054688 1807.46875 1433.75 C 1804.398438 1433.445312 1801.339844 1433.066406 1798.285156 1432.609375 C 1795.234375 1432.152344 1792.195312 1431.625 1789.167969 1431.019531 C 1786.140625 1430.414062 1783.132812 1429.734375 1780.136719 1428.984375 C 1777.144531 1428.230469 1774.171875 1427.40625 1771.21875 1426.507812 C 1768.265625 1425.609375 1765.339844 1424.640625 1762.433594 1423.601562 C 1759.527344 1422.558594 1756.648438 1421.445312 1753.800781 1420.261719 C 1750.949219 1419.082031 1748.128906 1417.828125 1745.339844 1416.507812 C 1742.550781 1415.1875 1739.796875 1413.800781 1737.074219 1412.34375 C 1734.351562 1410.886719 1731.667969 1409.367188 1729.023438 1407.777344 C 1726.375 1406.191406 1723.769531 1404.539062 1721.203125 1402.824219 C 1718.640625 1401.109375 1716.117188 1399.332031 1713.636719 1397.492188 C 1711.160156 1395.652344 1708.726562 1393.753906 1706.34375 1391.796875 C 1703.957031 1389.839844 1701.621094 1387.824219 1699.335938 1385.75 C 1697.046875 1383.675781 1694.8125 1381.550781 1692.632812 1379.367188 C 1690.449219 1377.1875 1688.320312 1374.949219 1686.25 1372.664062 C 1684.175781 1370.378906 1682.160156 1368.042969 1680.203125 1365.65625 C 1678.246094 1363.269531 1676.347656 1360.839844 1674.507812 1358.359375 C 1672.667969 1355.882812 1670.890625 1353.359375 1669.175781 1350.796875 C 1667.460938 1348.230469 1665.808594 1345.625 1664.222656 1342.976562 C 1662.632812 1340.332031 1661.113281 1337.644531 1659.65625 1334.925781 C 1658.199219 1332.203125 1656.8125 1329.449219 1655.492188 1326.660156 C 1654.171875 1323.871094 1652.917969 1321.050781 1651.734375 1318.199219 C 1650.554688 1315.347656 1649.441406 1312.472656 1648.398438 1309.566406 C 1647.359375 1306.660156 1646.390625 1303.730469 1645.492188 1300.78125 C 1644.59375 1297.828125 1643.769531 1294.855469 1643.015625 1291.859375 C 1642.265625 1288.867188 1641.585938 1285.859375 1640.980469 1282.832031 C 1640.375 1279.804688 1639.847656 1276.765625 1639.390625 1273.714844 C 1638.933594 1270.660156 1638.554688 1267.601562 1638.25 1264.527344 C 1637.945312 1261.457031 1637.714844 1258.382812 1637.558594 1255.300781 C 1637.40625 1252.214844 1637.324219 1249.132812 1637.320312 1246.046875 L 1637.320312 512 C 1637.328125 503.621094 1637.542969 495.25 1637.960938 486.882812 C 1638.378906 478.515625 1639.003906 470.167969 1639.828125 461.828125 C 1640.65625 453.492188 1641.6875 445.183594 1642.925781 436.898438 C 1644.160156 428.613281 1645.597656 420.359375 1647.238281 412.144531 C 1648.875 403.929688 1650.71875 395.761719 1652.757812 387.636719 C 1654.796875 379.511719 1657.035156 371.441406 1659.472656 363.425781 C 1661.910156 355.410156 1664.539062 347.460938 1667.367188 339.574219 C 1670.191406 331.6875 1673.210938 323.875 1676.417969 316.136719 C 1679.628906 308.398438 1683.027344 300.746094 1686.609375 293.175781 C 1690.195312 285.601562 1693.964844 278.125 1697.914062 270.738281 C 1701.867188 263.351562 1705.996094 256.066406 1710.304688 248.878906 C 1714.613281 241.695312 1719.097656 234.621094 1723.753906 227.65625 C 1728.40625 220.695312 1733.230469 213.847656 1738.222656 207.121094 C 1743.214844 200.390625 1748.367188 193.789062 1753.683594 187.316406 C 1759 180.839844 1764.46875 174.5 1770.09375 168.292969 C 1775.722656 162.085938 1781.496094 156.019531 1787.417969 150.097656 C 1793.34375 144.171875 1799.410156 138.398438 1805.613281 132.773438 C 1811.820312 127.148438 1818.164062 121.675781 1824.636719 116.359375 C 1831.113281 111.046875 1837.714844 105.890625 1844.441406 100.902344 C 1851.167969 95.910156 1858.015625 91.085938 1864.980469 86.429688 C 1871.945312 81.773438 1879.019531 77.292969 1886.203125 72.984375 C 1893.386719 68.675781 1900.671875 64.542969 1908.058594 60.59375 C 1915.445312 56.640625 1922.925781 52.875 1930.496094 49.289062 C 1938.066406 45.703125 1945.722656 42.308594 1953.460938 39.097656 C 1961.199219 35.886719 1969.011719 32.871094 1976.894531 30.042969 C 1984.78125 27.21875 1992.734375 24.585938 2000.75 22.152344 C 2008.761719 19.714844 2016.832031 17.476562 2024.957031 15.433594 C 2033.082031 13.394531 2041.253906 11.554688 2049.46875 9.914062 C 2057.683594 8.273438 2065.933594 6.835938 2074.21875 5.601562 C 2082.503906 4.367188 2090.816406 3.335938 2099.152344 2.507812 C 2107.488281 1.679688 2115.839844 1.058594 2124.207031 0.640625 C 2132.574219 0.21875 2140.945312 0.0078125 2149.320312 0 L 2560 0 C 2568.378906 0.0078125 2576.75 0.21875 2585.117188 0.640625 C 2593.484375 1.058594 2601.835938 1.679688 2610.171875 2.507812 C 2618.507812 3.335938 2626.816406 4.367188 2635.101562 5.601562 C 2643.386719 6.835938 2651.640625 8.273438 2659.855469 9.914062 C 2668.070312 11.554688 2676.238281 13.394531 2684.363281 15.433594 C 2692.488281 17.476562 2700.558594 19.714844 2708.574219 22.152344 C 2716.589844 24.585938 2724.539062 27.21875 2732.425781 30.042969 C 2740.3125 32.871094 2748.125 35.886719 2755.863281 39.097656 C 2763.597656 42.308594 2771.253906 45.703125 2778.824219 49.289062 C 2786.398438 52.875 2793.875 56.640625 2801.261719 60.59375 C 2808.648438 64.542969 2815.933594 68.675781 2823.121094 72.984375 C 2830.304688 77.292969 2837.378906 81.773438 2844.339844 86.429688 C 2851.304688 91.085938 2858.152344 95.910156 2864.878906 100.902344 C 2871.609375 105.890625 2878.210938 111.046875 2884.683594 116.359375 C 2891.160156 121.675781 2897.5 127.144531 2903.707031 132.773438 C 2909.914062 138.398438 2915.980469 144.171875 2921.902344 150.097656 C 2927.828125 156.019531 2933.601562 162.085938 2939.226562 168.292969 C 2944.851562 174.5 2950.324219 180.839844 2955.640625 187.316406 C 2960.953125 193.789062 2966.109375 200.390625 2971.097656 207.121094 C 2976.089844 213.847656 2980.914062 220.695312 2985.570312 227.65625 C 2990.226562 234.621094 2994.707031 241.695312 2999.015625 248.878906 C 3003.324219 256.066406 3007.457031 263.351562 3011.40625 270.738281 C 3015.359375 278.125 3019.125 285.601562 3022.710938 293.175781 C 3026.296875 300.746094 3029.691406 308.398438 3032.902344 316.136719 C 3036.113281 323.875 3039.128906 331.6875 3041.957031 339.574219 C 3044.78125 347.460938 3047.414062 355.410156 3049.847656 363.425781 C 3052.285156 371.441406 3054.523438 379.511719 3056.5625 387.636719 C 3058.605469 395.761719 3060.445312 403.929688 3062.085938 412.144531 C 3063.726562 420.359375 3065.164062 428.613281 3066.398438 436.898438 C 3067.632812 445.183594 3068.664062 453.492188 3069.492188 461.828125 C 3070.320312 470.164062 3070.941406 478.515625 3071.363281 486.882812 C 3071.78125 495.25 3071.992188 503.621094 3072 512 Z M 3072 512 " fill-opacity="1" fill-rule="nonzero"/></svg>