<svg xmlns="http://www.w3.org/2000/svg" xmlns:xlink="http://www.w3.org/1999/xlink" width="2000" zoomAndPan="magnify" viewBox="0 0 1500 1499.999933" height="2000" preserveAspectRatio="xMidYMid meet" version="1.0"><defs><clipPath id="dc5d57b3ca"><path d="M 45.332031 569 L 1308 569 L 1308 931.109375 L 45.332031 931.109375 Z M 45.332031 569 " clip-rule="nonzero"/></clipPath><clipPath id="753223cc98"><path d="M 119 462.359375 L 1454.582031 462.359375 L 1454.582031 893 L 119 893 Z M 119 462.359375 " clip-rule="nonzero"/></clipPath></defs><g clip-path="url(#dc5d57b3ca)"><path fill="#ededed" d="M 1307.757812 750.128906 C 1307.757812 850.058594 1025.152344 931.066406 676.542969 931.066406 C 327.933594 931.066406 45.332031 850.058594 45.332031 750.128906 C 45.332031 650.199219 327.933594 569.1875 676.542969 569.1875 C 1025.152344 569.1875 1307.757812 650.199219 1307.757812 750.128906 Z M 1307.757812 750.128906 " fill-opacity="1" fill-rule="nonzero"/></g><path fill="#483d73" d="M 1451.070312 662.972656 C 1451.359375 665.285156 1451.558594 667.605469 1451.558594 669.9375 C 1451.558594 711.59375 1404.871094 750.117188 1325.730469 781.464844 C 1244.992188 844.285156 1034.335938 889.085938 787.160156 889.085938 C 539.988281 889.085938 329.328125 844.285156 248.589844 781.464844 C 169.449219 750.117188 122.765625 711.59375 122.765625 669.9375 C 122.765625 667.605469 122.964844 665.285156 123.253906 662.972656 C 122.960938 660.660156 122.765625 658.339844 122.765625 656.003906 C 122.765625 550.820312 420.226562 465.554688 787.160156 465.554688 C 1154.097656 465.554688 1451.558594 550.820312 1451.558594 656.003906 C 1451.558594 658.339844 1451.359375 660.660156 1451.070312 662.972656 Z M 1451.070312 662.972656 " fill-opacity="1" fill-rule="nonzero"/><g clip-path="url(#753223cc98)"><path fill="#ededed" d="M 1454.664062 656.007812 C 1454.664062 603.625 1384.753906 554.738281 1257.816406 518.347656 C 1132.058594 482.300781 964.914062 462.445312 787.164062 462.445312 C 609.414062 462.445312 442.261719 482.300781 316.503906 518.347656 C 189.566406 554.738281 119.65625 603.625 119.65625 656.007812 C 119.65625 658.355469 119.847656 660.695312 120.128906 663.03125 C 119.816406 665.617188 119.65625 667.84375 119.65625 669.9375 C 119.65625 711.8125 164.375 751.449219 247.144531 784.253906 C 330.703125 848.832031 547.546875 892.195312 787.164062 892.195312 C 1026.78125 892.195312 1243.617188 848.832031 1327.175781 784.253906 C 1409.945312 751.449219 1454.664062 711.8125 1454.664062 669.9375 C 1454.664062 667.859375 1454.503906 665.625 1454.195312 663.011719 C 1454.472656 660.683594 1454.664062 658.351562 1454.664062 656.007812 Z M 787.164062 468.660156 C 1151.796875 468.660156 1448.449219 552.703125 1448.449219 656.007812 C 1448.449219 759.304688 1151.796875 843.347656 787.164062 843.347656 C 422.523438 843.347656 125.871094 759.304688 125.871094 656.007812 C 125.871094 552.703125 422.523438 468.660156 787.164062 468.660156 Z M 787.164062 885.980469 C 567.070312 885.980469 366.691406 849.4375 272.273438 793.613281 C 286.140625 798.449219 300.886719 803.117188 316.503906 807.59375 C 442.261719 843.644531 609.414062 863.5 787.164062 863.5 C 964.914062 863.5 1132.058594 843.644531 1257.816406 807.59375 C 1273.433594 803.117188 1288.179688 798.449219 1302.046875 793.613281 C 1207.628906 849.4375 1007.25 885.980469 787.164062 885.980469 Z M 1323.980469 779.214844 L 1323.824219 779.015625 C 1323.585938 779.199219 1323.3125 779.382812 1323.070312 779.566406 C 1202.824219 826.617188 1007.410156 857.285156 787.164062 857.285156 C 566.910156 857.285156 371.5 826.617188 251.25 779.566406 C 251.007812 779.382812 250.734375 779.199219 250.496094 779.015625 L 250.339844 779.214844 C 185.003906 753.523438 142.046875 722.980469 129.625 689.890625 C 153.085938 729.238281 217.421875 765.257812 316.503906 793.65625 C 442.261719 829.707031 609.414062 849.5625 787.164062 849.5625 C 964.90625 849.5625 1132.058594 829.707031 1257.816406 793.65625 C 1356.898438 765.257812 1421.230469 729.242188 1444.695312 689.890625 C 1432.277344 722.980469 1389.316406 753.523438 1323.980469 779.214844 Z M 264.550781 665.40625 C 264.929688 667.238281 265.296875 669.066406 265.890625 670.898438 L 268.851562 680.027344 L 269.285156 678.679688 C 307.050781 751.960938 524.882812 808.339844 787.164062 808.339844 C 1049.457031 808.339844 1267.289062 751.957031 1305.039062 678.671875 L 1305.480469 680.046875 L 1308.4375 670.894531 C 1309.042969 669.023438 1309.421875 667.152344 1309.800781 665.285156 C 1309.914062 664.738281 1310.105469 664.203125 1310.195312 663.65625 C 1310.628906 661.085938 1310.863281 658.53125 1310.863281 656.003906 C 1310.863281 572.007812 1075.933594 503.667969 787.164062 503.667969 C 498.390625 503.667969 263.457031 572.007812 263.457031 656.007812 C 263.457031 658.53125 263.691406 661.082031 264.121094 663.648438 C 264.222656 664.238281 264.429688 664.820312 264.550781 665.40625 Z M 787.164062 802.128906 C 518.660156 802.128906 297.328125 744.085938 272.125 670.101562 C 297.59375 595.824219 523.238281 537.75 787.164062 537.75 C 1051.074219 537.75 1276.710938 595.816406 1302.199219 670.09375 C 1277.011719 744.082031 1055.671875 802.128906 787.164062 802.128906 Z M 787.164062 509.882812 C 1072.503906 509.882812 1304.648438 575.433594 1304.648438 656.007812 C 1304.648438 657.171875 1304.433594 658.324219 1304.335938 659.484375 C 1264.71875 585.898438 1047.921875 531.535156 787.164062 531.535156 C 526.390625 531.535156 309.578125 585.914062 269.984375 659.5 C 269.886719 658.335938 269.671875 657.179688 269.671875 656.007812 C 269.671875 575.433594 501.816406 509.882812 787.164062 509.882812 Z M 787.164062 509.882812 " fill-opacity="1" fill-rule="nonzero"/></g></svg>