<svg xmlns="http://www.w3.org/2000/svg" xmlns:xlink="http://www.w3.org/1999/xlink" width="2000" zoomAndPan="magnify" viewBox="0 0 1500 1499.999933" height="2000" preserveAspectRatio="xMidYMid meet" version="1.0"><path fill="#483d73" d="M 232.589844 534.664062 C 229.578125 514.148438 225.207031 493.925781 219.476562 473.992188 C 211.589844 448.378906 206.746094 422.199219 204.953125 395.460938 L 203.796875 395.359375 C 203.796875 394.75 204.070312 391.621094 204.417969 388.015625 C 195.917969 393.003906 187.414062 398.113281 179.261719 403.597656 C 140.207031 429.777344 114.167969 463.921875 92.289062 517.949219 C 91.125 521.558594 90.125 525.214844 89.289062 528.917969 C 88.457031 532.617188 87.789062 536.347656 87.289062 540.109375 C 86.792969 543.871094 86.464844 547.648438 86.308594 551.4375 C 86.152344 555.230469 86.164062 559.019531 86.351562 562.808594 C 86.535156 566.597656 86.890625 570.371094 87.414062 574.128906 C 87.941406 577.886719 88.632812 581.613281 89.496094 585.308594 C 90.355469 589.003906 91.382812 592.652344 92.574219 596.253906 C 93.765625 599.855469 95.117188 603.398438 96.625 606.878906 C 100.703125 616.324219 105.453125 625.421875 110.875 634.164062 C 116.300781 642.90625 122.339844 651.199219 128.992188 659.046875 C 135.644531 666.894531 142.839844 674.210938 150.578125 680.992188 C 158.316406 687.773438 166.507812 693.945312 175.160156 699.511719 C 206.597656 719.855469 239.867188 736.539062 274.976562 749.5625 C 275.324219 749.300781 275.773438 749.027344 276.121094 748.765625 L 276.121094 748.679688 C 271.023438 712.570312 263.761719 676.90625 254.332031 641.683594 C 244.972656 606.441406 237.726562 570.765625 232.589844 534.664062 Z M 232.589844 534.664062 " fill-opacity="1" fill-rule="nonzero"/><path fill="#483d73" d="M 1143.890625 716.589844 C 1136.144531 710.796875 1127.699219 706.308594 1118.5625 703.128906 C 1094.875 696.035156 1071.191406 687.359375 1048.242188 678.945312 C 1012.484375 664.675781 975.816406 653.367188 938.230469 645.023438 C 895.921875 638.058594 853.332031 634.867188 810.457031 635.449219 L 808.859375 635.449219 C 802.628906 635.277344 797.082031 634.664062 791.59375 634.042969 C 783.054688 632.679688 774.492188 632.558594 765.917969 633.679688 C 755.601562 635.054688 745.296875 634.996094 735 633.507812 C 727.441406 632.457031 719.855469 632.160156 712.238281 632.621094 C 697.179688 634.042969 683.566406 635.277344 668.917969 635.449219 C 633.355469 635.476562 598.078125 638.667969 563.085938 645.023438 C 525.488281 653.367188 488.804688 664.671875 453.035156 678.945312 C 430.101562 687.359375 406.363281 696.035156 382.628906 703.128906 C 373.527344 706.324219 365.113281 710.8125 357.386719 716.589844 C 351.394531 720.6875 345.160156 724.375 338.6875 727.660156 C 321.597656 735.554688 305.265625 744.796875 289.699219 755.382812 C 352.996094 780.058594 418.097656 798.304688 485 810.121094 L 579.066406 827.386719 C 590.046875 829.429688 601.503906 831.464844 612.636719 832.609375 C 625.914062 834.03125 639.738281 834.117188 653.113281 834.207031 C 666.039062 834.292969 679.851562 835.625 693.226562 836.875 C 712.859375 839.40625 732.550781 840.054688 752.304688 838.816406 L 757.800781 838.28125 C 784.367188 835.789062 813.074219 834.542969 848.140625 834.207031 C 861.515625 834.117188 875.328125 834.03125 888.617188 832.609375 C 899.773438 831.464844 911.117188 829.429688 922.101562 827.386719 L 1016.253906 810.121094 C 1083.148438 798.292969 1148.246094 780.046875 1211.542969 755.382812 C 1195.96875 744.816406 1179.644531 735.574219 1162.566406 727.660156 C 1156.089844 724.394531 1149.863281 720.707031 1143.890625 716.589844 Z M 1143.890625 716.589844 " fill-opacity="1" fill-rule="nonzero"/><path fill="#483d73" d="M 1175.070312 839.441406 C 1097.085938 862.261719 1017.785156 878.765625 937.171875 888.941406 C 864.382812 898.039062 791.3125 902.941406 717.960938 903.652344 L 708.386719 903.914062 C 707.589844 903.914062 706.703125 904 705.820312 904 C 697.722656 903.832031 689.667969 903.183594 681.648438 902.058594 C 676.410156 901.433594 671.277344 900.8125 666.402344 900.460938 C 630.710938 898.328125 594.933594 893.382812 564.105469 888.941406 C 483.464844 878.757812 404.136719 862.257812 326.121094 839.441406 C 250.394531 815.605469 190.519531 796.832031 127.804688 741.660156 C 122.667969 737.132812 117.269531 732.796875 111.773438 728.632812 C 112.222656 732.535156 112.394531 736.25 112.570312 739.851562 C 112.507812 747.445312 113.542969 754.886719 115.675781 762.179688 C 121.3125 779.007812 125.679688 796.160156 128.777344 813.636719 C 131.53125 827.101562 134.097656 839.816406 137.8125 852.082031 L 139.496094 857.480469 C 143.265625 869.089844 146.394531 880.871094 148.882812 892.820312 C 150.929688 903.265625 151.988281 913.8125 153.046875 923.910156 L 153.757812 931.078125 C 157.570312 961.042969 163.332031 990.628906 171.035156 1019.835938 C 173.890625 1031.878906 177.828125 1043.558594 182.84375 1054.871094 C 187.859375 1066.1875 193.871094 1076.945312 200.878906 1087.148438 C 222.132812 1115.570312 256.328125 1139.40625 286.445312 1160.484375 C 303.222656 1172.414062 320.726562 1183.171875 338.949219 1192.75 C 357.171875 1202.328125 375.953125 1210.648438 395.296875 1217.703125 C 433.453125 1229.96875 472.332031 1239.175781 511.9375 1245.328125 C 601.292969 1260.46875 691.285156 1268.363281 781.910156 1269.011719 C 851.34375 1270.523438 921.527344 1257.792969 989.253906 1245.328125 C 1028.886719 1239.175781 1067.796875 1229.96875 1105.984375 1217.703125 C 1125.253906 1210.6875 1143.96875 1202.410156 1162.125 1192.875 C 1180.28125 1183.335938 1197.71875 1172.628906 1214.4375 1160.746094 C 1244.988281 1139.40625 1279.183594 1115.570312 1300.449219 1087.199219 C 1307.460938 1077.003906 1313.46875 1066.25 1318.472656 1054.929688 C 1323.472656 1043.613281 1327.386719 1031.933594 1330.207031 1019.882812 C 1337.996094 990.695312 1343.753906 961.109375 1347.484375 931.128906 L 1348.28125 923.960938 C 1349.253906 913.863281 1350.3125 903.316406 1352.34375 892.871094 C 1354.914062 880.929688 1358.074219 869.148438 1361.832031 857.53125 L 1363.515625 852.132812 C 1367.253906 839.816406 1369.746094 827.199219 1372.539062 813.6875 C 1375.601562 796.199219 1379.972656 779.046875 1385.652344 762.226562 C 1387.785156 754.9375 1388.820312 747.496094 1388.757812 739.902344 C 1388.933594 736.273438 1389.105469 732.558594 1389.457031 728.683594 C 1384.058594 732.847656 1378.660156 737.183594 1373.523438 741.710938 C 1310.757812 796.832031 1250.886719 815.605469 1175.070312 839.441406 Z M 1175.070312 839.441406 " fill-opacity="1" fill-rule="nonzero"/><path fill="#483d73" d="M 1460.449219 518.011719 C 1452.285156 498.707031 1442.425781 480.316406 1430.867188 462.835938 C 1395.960938 411.378906 1343.269531 376.210938 1301.222656 351.316406 C 1250.734375 321.476562 1196.796875 304.285156 1136.5625 286.496094 C 1109.636719 278.617188 1081.300781 272.859375 1054.011719 267.375 C 1001.855469 256.914062 948.054688 246.105469 894.449219 240.796875 C 860.53125 237.515625 835.027344 235.921875 811.816406 235.746094 C 802.101562 235.515625 792.449219 234.632812 782.855469 233.09375 C 772.761719 231.457031 762.601562 230.691406 752.378906 230.785156 C 741.046875 231.320312 729.941406 232.917969 718.023438 234.601562 C 709.78125 235.847656 701.542969 236.992188 693.214844 237.792969 C 678.953125 239.113281 664.78125 239.113281 651.054688 239.113281 C 637.679688 239.199219 625.191406 239.113281 612.625 240.261719 C 557.101562 246.308594 502.066406 255.34375 447.527344 267.375 C 419.976562 272.859375 391.71875 278.59375 364.792969 286.496094 C 304.570312 304.296875 250.628906 321.488281 200.054688 351.316406 C 158.070312 376.25 105.316406 411.378906 70.410156 462.835938 C 58.820312 480.300781 48.957031 498.691406 40.828125 518.011719 C 39.078125 521.679688 37.515625 525.433594 36.148438 529.261719 C 34.785156 533.09375 33.617188 536.988281 32.65625 540.9375 C 31.691406 544.890625 30.933594 548.882812 30.382812 552.910156 C 29.832031 556.941406 29.488281 560.988281 29.355469 565.054688 C 29.222656 569.121094 29.296875 573.183594 29.585938 577.242188 C 29.871094 581.296875 30.367188 585.332031 31.070312 589.335938 C 31.773438 593.34375 32.679688 597.304688 33.792969 601.214844 C 34.90625 605.128906 36.214844 608.972656 37.726562 612.75 C 40.117188 620.183594 43.054688 627.394531 46.539062 634.382812 C 50.019531 641.371094 54.011719 648.054688 58.511719 654.4375 C 63.007812 660.820312 67.960938 666.828125 73.371094 672.457031 C 78.78125 678.089844 84.582031 683.28125 90.78125 688.03125 C 92.828125 689.4375 94.777344 690.972656 96.625 692.632812 C 112.6875 702.316406 127.773438 713.332031 141.890625 725.679688 C 201.140625 777.847656 259.15625 796.085938 332.492188 819.109375 C 409.402344 841.613281 487.613281 857.863281 567.125 867.863281 C 597.503906 872.300781 632.84375 877.164062 667.648438 879.292969 C 672.957031 879.644531 678.542969 880.265625 684.117188 880.890625 C 691.96875 882.058594 699.863281 882.648438 707.800781 882.660156 L 717.449219 882.398438 C 789.96875 881.675781 862.210938 876.832031 934.179688 867.863281 C 1013.660156 857.882812 1091.84375 841.644531 1168.722656 819.148438 C 1242.148438 796.121094 1300.0625 777.886719 1359.449219 725.714844 C 1373.53125 713.371094 1388.585938 702.355469 1404.613281 692.667969 C 1406.289062 691.191406 1408.035156 689.804688 1409.851562 688.503906 C 1416.128906 683.753906 1422.011719 678.550781 1427.496094 672.898438 C 1432.980469 667.246094 1438 661.210938 1442.5625 654.789062 C 1447.121094 648.367188 1451.164062 641.636719 1454.691406 634.59375 C 1458.21875 627.554688 1461.1875 620.285156 1463.601562 612.789062 C 1465.113281 609.007812 1466.421875 605.160156 1467.535156 601.246094 C 1468.648438 597.332031 1469.554688 593.371094 1470.257812 589.363281 C 1470.957031 585.351562 1471.453125 581.320312 1471.738281 577.257812 C 1472.023438 573.199219 1472.097656 569.136719 1471.960938 565.070312 C 1471.828125 561 1471.480469 556.953125 1470.925781 552.917969 C 1470.375 548.886719 1469.613281 544.894531 1468.644531 540.941406 C 1467.679688 536.988281 1466.507812 533.097656 1465.140625 529.265625 C 1463.769531 525.433594 1462.207031 521.679688 1460.449219 518.011719 Z M 1421.117188 613.222656 C 1416.773438 623.542969 1411.675781 633.472656 1405.828125 643.019531 C 1399.980469 652.566406 1393.449219 661.621094 1386.234375 670.179688 C 1379.019531 678.738281 1371.203125 686.710938 1362.78125 694.085938 C 1354.363281 701.464844 1345.433594 708.167969 1336.003906 714.199219 C 1299.167969 737.734375 1260.167969 756.847656 1219 771.539062 C 1154.347656 796.878906 1087.828125 815.578125 1019.445312 827.636719 L 925.390625 844.839844 C 914.046875 846.871094 902.265625 849.089844 890.398438 850.238281 C 876.375 851.503906 862.320312 852.0625 848.238281 851.917969 C 813.699219 852.195312 785.539062 853.429688 759.496094 855.910156 L 754.1875 856.445312 C 748.066406 857.054688 741.957031 857.328125 735.675781 857.328125 C 721.050781 857.328125 706.179688 855.910156 691.558594 854.488281 C 678.007812 853.242188 665.167969 851.996094 652.914062 851.917969 C 639.199219 851.832031 624.925781 851.746094 610.753906 850.238281 C 598.886719 849.089844 587.207031 846.871094 575.851562 844.839844 L 481.78125 827.5625 C 413.398438 815.511719 346.886719 796.8125 282.242188 771.464844 C 241.046875 756.773438 202.015625 737.660156 165.152344 714.121094 C 155.722656 708.09375 146.804688 701.390625 138.390625 694.011719 C 129.976562 686.632812 122.164062 678.664062 114.957031 670.101562 C 107.75 661.542969 101.226562 652.488281 95.386719 642.945312 C 89.546875 633.398438 84.460938 623.464844 80.121094 613.148438 C 78.410156 609.148438 76.882812 605.078125 75.539062 600.9375 C 74.195312 596.796875 73.039062 592.605469 72.078125 588.363281 C 71.113281 584.117188 70.339844 579.839844 69.765625 575.523438 C 69.1875 571.210938 68.804688 566.878906 68.621094 562.53125 C 68.4375 558.179688 68.449219 553.832031 68.65625 549.484375 C 68.867188 545.136719 69.269531 540.808594 69.871094 536.5 C 70.472656 532.1875 71.265625 527.914062 72.253906 523.675781 C 73.242188 519.433594 74.417969 515.25 75.785156 511.117188 C 99.15625 453.636719 127.15625 417.050781 169.277344 388.800781 C 264.019531 325.390625 378.703125 298.1875 488.476562 278.269531 C 552.6875 265.203125 617.550781 258.175781 683.066406 257.1875 L 691.667969 257.277344 C 801.042969 257.984375 904.324219 258.597656 1012.640625 278.269531 C 1122.476562 298.214844 1237.171875 325.390625 1331.765625 388.800781 C 1374.011719 417.050781 1402.007812 453.625 1425.382812 511.117188 C 1426.75 515.253906 1427.925781 519.441406 1428.914062 523.683594 C 1429.902344 527.921875 1430.695312 532.199219 1431.296875 536.511719 C 1431.902344 540.828125 1432.308594 545.15625 1432.519531 549.507812 C 1432.730469 553.859375 1432.742188 558.207031 1432.5625 562.558594 C 1432.378906 566.910156 1432.003906 571.246094 1431.429688 575.5625 C 1430.859375 579.878906 1430.089844 584.160156 1429.132812 588.410156 C 1428.171875 592.65625 1427.023438 596.851562 1425.683594 600.996094 C 1424.347656 605.140625 1422.824219 609.21875 1421.117188 613.222656 Z M 1421.117188 613.222656 " fill-opacity="1" fill-rule="nonzero"/><path fill="#483d73" d="M 1322.003906 403.574219 C 1230.066406 341.929688 1117.5625 315.367188 1009.535156 295.78125 C 902.804688 276.386719 800.234375 275.773438 691.65625 275.0625 L 683.066406 274.976562 L 679.078125 274.976562 C 616.019531 276.335938 553.578125 283.269531 491.753906 295.78125 C 398.671875 312.613281 302.273438 334.851562 218.515625 380.015625 C 218.316406 395.394531 219.378906 410.683594 221.695312 425.890625 C 224.011719 441.09375 227.558594 456.007812 232.328125 470.628906 C 238.265625 491.136719 242.738281 511.957031 245.753906 533.09375 C 250.824219 568.65625 258 603.789062 267.285156 638.492188 C 276.140625 672.0625 283.136719 706.015625 288.277344 740.351562 C 302.617188 731.164062 317.496094 722.957031 332.917969 715.730469 C 338.871094 712.6875 344.597656 709.257812 350.09375 705.445312 C 358.941406 699.003906 368.535156 693.988281 378.878906 690.398438 C 402.175781 683.480469 425.648438 674.804688 448.410156 666.476562 C 484.824219 651.953125 522.171875 640.46875 560.453125 632.023438 C 596.234375 625.496094 632.3125 622.21875 668.683594 622.199219 C 682.855469 622.023438 696.109375 620.777344 710.320312 619.542969 C 719.023438 618.886719 727.699219 619.148438 736.347656 620.328125 C 745.429688 621.71875 754.527344 621.808594 763.636719 620.605469 C 773.449219 619.214844 783.253906 619.300781 793.042969 620.867188 C 798.363281 621.59375 803.707031 622.039062 809.074219 622.199219 L 810.667969 622.199219 C 854.324219 621.664062 897.691406 624.9375 940.773438 632.023438 C 979.0625 640.480469 1016.417969 651.964844 1052.839844 666.476562 C 1075.515625 674.804688 1099.078125 683.480469 1122.375 690.398438 C 1132.707031 694.007812 1142.300781 699.023438 1151.160156 705.445312 C 1156.644531 709.277344 1162.371094 712.707031 1168.335938 715.730469 C 1188.75 725.117188 1208.0625 736.394531 1226.265625 749.5625 C 1261.371094 736.539062 1294.644531 719.855469 1326.078125 699.511719 C 1334.738281 693.953125 1342.941406 687.789062 1350.683594 681.007812 C 1358.425781 674.230469 1365.621094 666.917969 1372.277344 659.070312 C 1378.929688 651.222656 1384.964844 642.925781 1390.386719 634.175781 C 1395.804688 625.429688 1400.546875 616.332031 1404.613281 606.878906 C 1406.132812 603.402344 1407.492188 599.863281 1408.691406 596.261719 C 1409.890625 592.660156 1410.925781 589.015625 1411.792969 585.320312 C 1412.664062 581.625 1413.363281 577.898438 1413.894531 574.140625 C 1414.425781 570.382812 1414.785156 566.609375 1414.976562 562.820312 C 1415.164062 559.03125 1415.179688 555.238281 1415.027344 551.445312 C 1414.871094 547.65625 1414.546875 543.878906 1414.050781 540.117188 C 1413.554688 536.351562 1412.886719 532.621094 1412.054688 528.917969 C 1411.21875 525.214844 1410.21875 521.558594 1409.050781 517.949219 C 1387.113281 463.898438 1361.070312 429.703125 1322.003906 403.574219 Z M 1322.003906 403.574219 " fill-opacity="1" fill-rule="nonzero"/></svg>