<svg xmlns="http://www.w3.org/2000/svg" xmlns:xlink="http://www.w3.org/1999/xlink" width="2000" zoomAndPan="magnify" viewBox="0 0 1500 1499.999933" height="2000" preserveAspectRatio="xMidYMid meet" version="1.0"><defs><clipPath id="316a0186c0"><path d="M 234 93.046875 L 1266 93.046875 L 1266 333 L 234 333 Z M 234 93.046875 " clip-rule="nonzero"/></clipPath></defs><path fill="#483d73" d="M 1184.753906 304.304688 C 1138.753906 647.96875 1092.914062 997.214844 1047.035156 1349.394531 C 1044.359375 1369.984375 1027.503906 1386.640625 1007.601562 1388.136719 C 836.117188 1400.898438 663.921875 1400.898438 492.453125 1388.136719 C 472.53125 1386.640625 455.695312 1369.984375 453.003906 1349.394531 C 447.359375 1306.050781 441.714844 1262.746094 436.070312 1219.519531 C 395.832031 911.335938 355.617188 605.667969 315.261719 304.304688 Z M 1184.753906 304.304688 " fill-opacity="1" fill-rule="nonzero"/><path fill="#ededed" d="M 750.019531 1406.660156 C 663.742188 1406.660156 577.449219 1403.476562 491.785156 1397.085938 C 480.042969 1396.199219 468.753906 1390.96875 459.964844 1382.316406 C 451.292969 1373.78125 445.648438 1362.492188 444.09375 1350.535156 C 438.449219 1307.191406 432.804688 1263.886719 427.160156 1220.660156 C 380.828125 865.925781 342.460938 575.125 306.351562 305.484375 L 304.996094 295.296875 L 1195.019531 295.296875 L 1193.664062 305.484375 C 1153.347656 606.648438 1109.589844 938.730469 1055.941406 1350.554688 C 1052.71875 1375.292969 1032.226562 1395.292969 1008.273438 1397.085938 C 922.585938 1403.476562 836.292969 1406.660156 750.019531 1406.660156 Z M 325.527344 313.292969 C 361.222656 580.082031 399.234375 868.050781 444.960938 1218.359375 C 450.601562 1261.605469 456.246094 1304.910156 461.890625 1348.253906 C 464.035156 1364.714844 477.449219 1378.007812 493.101562 1379.1875 C 663.566406 1391.871094 836.449219 1391.871094 1006.914062 1379.1875 C 1022.550781 1378.027344 1035.960938 1364.714844 1038.105469 1348.253906 C 1091.144531 941.050781 1134.527344 611.800781 1174.46875 313.3125 L 325.527344 313.3125 Z M 325.527344 313.292969 " fill-opacity="1" fill-rule="nonzero"/><path fill="#483d73" d="M 1255.058594 303.417969 L 1239.25 258.640625 C 1231.933594 237.890625 1212.640625 223.851562 1190.773438 223.144531 L 1181.351562 139.601562 C 1178.953125 118.382812 1161.019531 102.355469 1139.660156 102.355469 L 360.277344 102.355469 C 338.980469 102.355469 321.0625 118.363281 318.683594 139.523438 L 309.265625 223.144531 C 287.394531 223.851562 268.101562 237.890625 260.789062 258.640625 L 244.976562 303.417969 C 241.808594 312.386719 245.527344 323.910156 251.5625 323.910156 L 1248.453125 323.910156 C 1254.511719 323.910156 1258.207031 312.386719 1255.058594 303.417969 Z M 1255.058594 303.417969 " fill-opacity="1" fill-rule="nonzero"/><g clip-path="url(#316a0186c0)"><path fill="#ededed" d="M 1248.453125 332.898438 L 251.5625 332.898438 C 246.785156 332.898438 242.457031 330.5 239.371094 326.132812 C 234.671875 319.507812 233.492188 308.925781 236.5 300.429688 L 252.3125 255.652344 C 256.5 243.773438 264.089844 233.566406 274.257812 226.132812 C 282.28125 220.273438 291.445312 216.457031 301.140625 214.921875 L 309.753906 138.519531 C 312.644531 112.757812 334.378906 93.347656 360.277344 93.347656 L 1139.660156 93.347656 C 1165.621094 93.347656 1187.371094 112.796875 1190.28125 138.578125 L 1198.875 214.882812 C 1208.570312 216.4375 1217.734375 220.230469 1225.757812 226.09375 C 1235.925781 233.527344 1243.515625 243.734375 1247.707031 255.613281 L 1263.515625 300.390625 C 1266.527344 308.886719 1265.34375 319.46875 1260.644531 326.09375 C 1257.578125 330.5 1253.230469 332.898438 1248.453125 332.898438 Z M 253.589844 314.925781 L 1246.425781 314.925781 C 1247.136719 313.195312 1247.726562 309.652344 1246.585938 306.410156 L 1230.773438 261.628906 C 1224.65625 244.304688 1208.84375 232.71875 1190.476562 232.128906 L 1182.710938 231.875 L 1172.425781 140.605469 C 1170.535156 123.90625 1156.457031 111.320312 1139.660156 111.320312 L 360.277344 111.320312 C 343.523438 111.320312 329.480469 123.867188 327.613281 140.507812 L 317.328125 231.855469 L 309.558594 232.109375 C 291.191406 232.699219 275.378906 244.285156 269.261719 261.609375 L 253.453125 306.390625 C 252.292969 309.652344 252.902344 313.195312 253.589844 314.925781 Z M 253.589844 314.925781 " fill-opacity="1" fill-rule="nonzero"/></g></svg>